# xmcd
#
# Track frame offsets:
#	150
#	16136
#	32215
#	47252
#	61149
#	73943
#	89312
#	105225
#	118053
#	130297
#	142490
#	158411
#	174739
#	186151
#	201525
#	217794
#	230386
#	244701
#	258549
#	275943
#	289957
#
# Disc length: 4060 seconds
#
# Revision: 0
# Processed by: cddbd v1.5.2PL0 Copyright (c) Steve Scherf et al.
# Submitted via: EZCDAudioConverter 7.1.0.1
#
DISCID=3d0fda15
DTITLE=Nu Country Traxx Volume 233 US
DYEAR=2018
DGENRE=country
TTITLE0=Keith Urban - Never Comin Down
TTITLE1=Cody Johnson - On My Way To You
TTITLE2=Sundance Head - Leave Her Wild
TTITLE3=Jake Owen - Down To The Honkeytonk
TTITLE4=LoCash - Feels Like A Party
TTITLE5=Runaway June - Buy My Own Drinks
TTITLE6=Jon Langston - When It Comes To Loving You
TTITLE7=Southern Halo - I Think Too Much
TTITLE8=Dylan Schneider - How Does It Sound
TTITLE9=Briana Renea - Chasin' Trouble
TTITLE10=Cassadee Pope - One More Red Light
TTITLE11=Ryan Kinder -  Stay
TTITLE12=Jessica Lynn - Let's Don't
TTITLE13=The Ashley Sisters - Reckless
TTITLE14=John Schneider - Can I Buy You A Beer
TTITLE15=Jess Moskaluke - Camouflage
TTITLE16=\nPetric  - Can't Say No
TTITLE17=The Lovelocks - 20 Dollars In My Pocket
TTITLE18=Justin Tyler - First Time
TTITLE19=Trevor Panczak - Cheap Shades
TTITLE20=Wes Mack - PBR State Of Mind
EXTD=
EXTT0=
EXTT1=
EXTT2=
EXTT3=
EXTT4=
EXTT5=
EXTT6=
EXTT7=
EXTT8=
EXTT9=
EXTT10=
EXTT11=
EXTT12=
EXTT13=
EXTT14=
EXTT15=
EXTT16=
EXTT17=
EXTT18=
EXTT19=
EXTT20=
PLAYORDER=
